REM DIRINDEX 1\2,1\3,1\4,1\5
REM DIRNAME folder01,folder02,folder03,folder04,folder05
TITLE ""
FILE "1800_059.mp3" MP3
  TRACK 01 AUDIO
    TITLE "2:cjc044_1433"
    INDEX 01 00:00:00
  TRACK 02 AUDIO
    TITLE "0:"
    INDEX 01 00:01:03
  TRACK 03 AUDIO
    TITLE "3:cjc044_1434"
    INDEX 01 00:01:62
  TRACK 04 AUDIO
    TITLE "0:"
    INDEX 01 00:03:06
  TRACK 05 AUDIO
    TITLE "4:cjc044_1435"
    INDEX 01 00:03:61
  TRACK 06 AUDIO
    TITLE "0:"
    INDEX 01 00:04:72
  TRACK 07 AUDIO
    TITLE "5:cjc044_1436"
    INDEX 01 00:05:56
  TRACK 08 AUDIO
    TITLE "0:"
    INDEX 01 00:08:56
  TRACK 09 AUDIO
    TITLE "2:cjc044_1437"
    INDEX 01 00:10:43
  TRACK 10 AUDIO
    TITLE "0:"
    INDEX 01 00:11:54
  TRACK 11 AUDIO
    TITLE "3:cjc044_1438"
    INDEX 01 00:12:40
  TRACK 12 AUDIO
    TITLE "0:"
    INDEX 01 00:14:09
  TRACK 13 AUDIO
    TITLE "4:cjc044_1439"
    INDEX 01 00:14:68
  TRACK 14 AUDIO
    TITLE "0:"
    INDEX 01 00:16:06
  TRACK 15 AUDIO
    TITLE "5:cjc044_1440"
    INDEX 01 00:16:51
  TRACK 16 AUDIO
    TITLE "0:"
    INDEX 01 00:19:48
  TRACK 17 AUDIO
    TITLE "2:cjc044_1441"
    INDEX 01 00:21:35
  TRACK 18 AUDIO
    TITLE "0:"
    INDEX 01 00:22:48
  TRACK 19 AUDIO
    TITLE "3:cjc044_1442"
    INDEX 01 00:23:28
  TRACK 20 AUDIO
    TITLE "0:"
    INDEX 01 00:24:35
  TRACK 21 AUDIO
    TITLE "4:cjc044_1443"
    INDEX 01 00:25:27
  TRACK 22 AUDIO
    TITLE "0:"
    INDEX 01 00:26:38
  TRACK 23 AUDIO
    TITLE "5:cjc044_1444"
    INDEX 01 00:27:12
  TRACK 24 AUDIO
    TITLE "0:"
    INDEX 01 00:29:72
  TRACK 25 AUDIO
    TITLE "2:cjc044_1445"
    INDEX 01 00:31:59
  TRACK 26 AUDIO
    TITLE "0:"
    INDEX 01 00:32:72
  TRACK 27 AUDIO
    TITLE "3:cjc044_1446"
    INDEX 01 00:33:56
  TRACK 28 AUDIO
    TITLE "0:"
    INDEX 01 00:34:65
  TRACK 29 AUDIO
    TITLE "4:cjc044_1447"
    INDEX 01 00:35:49
  TRACK 30 AUDIO
    TITLE "0:"
    INDEX 01 00:36:62
  TRACK 31 AUDIO
    TITLE "5:cjc044_1448"
    INDEX 01 00:37:50
  TRACK 32 AUDIO
    TITLE "0:"
    INDEX 01 00:40:32
  TRACK 33 AUDIO
    TITLE "2:cjc044_1449"
    INDEX 01 00:42:18
  TRACK 34 AUDIO
    TITLE "0:"
    INDEX 01 00:43:35
  TRACK 35 AUDIO
    TITLE "3:cjc044_1450"
    INDEX 01 00:44:22
  TRACK 36 AUDIO
    TITLE "0:"
    INDEX 01 00:45:41
  TRACK 37 AUDIO
    TITLE "4:cjc044_1451"
    INDEX 01 00:46:27
  TRACK 38 AUDIO
    TITLE "0:"
    INDEX 01 00:47:44
  TRACK 39 AUDIO
    TITLE "5:cjc044_1452"
    INDEX 01 00:48:22
  TRACK 40 AUDIO
    TITLE "0:"
    INDEX 01 00:52:14
  TRACK 41 AUDIO
    TITLE "2:cjc044_1453"
    INDEX 01 00:53:70
  TRACK 42 AUDIO
    TITLE "0:"
    INDEX 01 00:54:74
  TRACK 43 AUDIO
    TITLE "3:cjc044_1454"
    INDEX 01 00:55:59
  TRACK 44 AUDIO
    TITLE "0:"
    INDEX 01 00:56:47
  TRACK 45 AUDIO
    TITLE "4:cjc044_1455"
    INDEX 01 00:57:33
  TRACK 46 AUDIO
    TITLE "0:"
    INDEX 01 00:58:38
  TRACK 47 AUDIO
    TITLE "5:cjc044_1456"
    INDEX 01 00:59:26
  TRACK 48 AUDIO
    TITLE "0:"
    INDEX 01 01:03:18
  TRACK 49 AUDIO
    TITLE "2:cjc044_1457"
    INDEX 01 01:04:74
  TRACK 50 AUDIO
    TITLE "0:"
    INDEX 01 01:06:02
  TRACK 51 AUDIO
    TITLE "3:cjc044_1458"
    INDEX 01 01:06:73
  TRACK 52 AUDIO
    TITLE "0:"
    INDEX 01 01:07:74
  TRACK 53 AUDIO
    TITLE "4:cjc044_1459"
    INDEX 01 01:08:56
  TRACK 54 AUDIO
    TITLE "0:"
    INDEX 01 01:09:59
  TRACK 55 AUDIO
    TITLE "5:cjc044_1460"
    INDEX 01 01:10:51
  TRACK 56 AUDIO
    TITLE "0:"
    INDEX 01 01:13:71
  TRACK 57 AUDIO
    TITLE "2:cjc044_1461"
    INDEX 01 01:15:52
  TRACK 58 AUDIO
    TITLE "0:"
    INDEX 01 01:16:65
  TRACK 59 AUDIO
    TITLE "3:cjc044_1462"
    INDEX 01 01:17:49
  TRACK 60 AUDIO
    TITLE "0:"
    INDEX 01 01:18:62
  TRACK 61 AUDIO
    TITLE "4:cjc044_1463"
    INDEX 01 01:19:42
  TRACK 62 AUDIO
    TITLE "0:"
    INDEX 01 01:20:53
  TRACK 63 AUDIO
    TITLE "5:cjc044_1464"
    INDEX 01 01:21:33
  TRACK 64 AUDIO
    TITLE "0:"
    INDEX 01 01:24:24
  TRACK 65 AUDIO
    TITLE "2:cjc044_1465"
    INDEX 01 01:26:11
  TRACK 66 AUDIO
    TITLE "0:"
    INDEX 01 01:27:18
  TRACK 67 AUDIO
    TITLE "3:cjc044_1466"
    INDEX 01 01:28:06
  TRACK 68 AUDIO
    TITLE "0:"
    INDEX 01 01:29:23
  TRACK 69 AUDIO
    TITLE "4:cjc044_1467"
    INDEX 01 01:30:05
  TRACK 70 AUDIO
    TITLE "0:"
    INDEX 01 01:31:14
  TRACK 71 AUDIO
    TITLE "5:cjc044_1468"
    INDEX 01 01:31:59
  TRACK 72 AUDIO
    TITLE "0:"
    INDEX 01 01:34:48
